<svg xmlns="http://www.w3.org/2000/svg" aria-hidden="true" style="position:absolute;width:0;height:0;overflow:hidden">
 <defs>
  <symbol id="icon-arrow-back" viewBox="0 0 32 32">
    <path stroke-width="1.333" d="M16.01 6.249c.114 0 .212.035.322.145a.45.45 0 0 1 .145.332.425.425 0 0 1-.145.324L7.85 15.532h17.88a.451.451 0 0 1 .477.469c0 .16-.046.255-.129.337a.457.457 0 0 1-.348.132H7.85l8.474 8.473c.11.11.147.212.148.335v.001a.4.4 0 0 1-.074.246l-.069.082a.415.415 0 0 1-.323.142.457.457 0 0 1-.341-.151l-9.264-9.264a.542.542 0 0 1-.121-.167v-.001c-.02-.048-.031-.102-.031-.165s.012-.116.031-.163v-.001a.554.554 0 0 1 .121-.167l9.267-9.267a.466.466 0 0 1 .342-.152z"/>
  </symbol>

  <symbol id="icon-arrow-back-ios" viewBox="0 0 32 32">
    <path d="m12.474 16 10.404 10.404c.266.271.4.61.402 1.016s-.131.756-.402 1.05c-.293.288-.643.432-1.05.432s-.754-.144-1.042-.432L9.907 17.591c-.227-.227-.391-.478-.493-.754s-.153-.555-.153-.837.051-.561.153-.837c.102-.276.266-.528.493-.754L20.819 3.505c.288-.293.628-.436 1.021-.427s.738.159 1.037.452c.266.293.404.638.415 1.033s-.127.74-.415 1.033L12.473 16z"/>
  </symbol>

  <symbol id="icon-arrow-forward" viewBox="0 0 32 32">
    <path stroke-width="1.333" d="M15.993 6.253a.432.432 0 0 1 .259.081l.082.07 9.264 9.264a.542.542 0 0 1 .121.167v.001c.02.048.031.102.031.165s-.012.116-.031.163v.001a.567.567 0 0 1-.121.167l-9.272 9.264c-.122.12-.227.155-.337.155-.108 0-.204-.033-.315-.147l-.007-.007-.069-.081c-.056-.079-.075-.157-.075-.243s.02-.163.075-.242l.069-.081 8.482-8.482H6.269c-.163 0-.259-.047-.34-.128h-.001a.44.44 0 0 1-.128-.341c0-.162.046-.26.128-.341h.001c.081-.081.177-.127.34-.128h17.88l-8.474-8.474a.467.467 0 0 1-.141-.246l-.008-.09a.423.423 0 0 1 .141-.326l.001-.001a.42.42 0 0 1 .324-.142z"/>
  </symbol>

  <symbol id="icon-arrow-forward-ios" viewBox="0 0 32 32">
    <path d="M19.509 15.933 9.105 5.529c-.271-.271-.408-.609-.41-1.012s.131-.75.402-1.038c.293-.293.643-.44 1.05-.44s.754.147 1.042.44l10.879 10.863c.227.227.391.478.493.754s.153.555.153.837-.051.561-.153.837a2.073 2.073 0 0 1-.493.754L11.164 28.428c-.293.293-.636.435-1.029.423s-.736-.163-1.029-.457c-.271-.293-.412-.636-.423-1.029s.13-.736.423-1.029L19.51 15.932z"/>
  </symbol>

  <symbol id="icon-checkbook" viewBox="0 0 32 32">
    <path d="M8.93 19.78h9.826c.332 0 .581-.103.748-.311a1.065 1.065 0 0 0 0-1.372c-.167-.211-.416-.317-.748-.317H8.93c-.282 0-.519.097-.711.289s-.287.432-.287.717.096.522.287.711.429.283.711.283zm.002-5.877h5.7c.283 0 .521-.096.712-.289s.288-.431.288-.717a.974.974 0 0 0-1-.994h-5.7c-.283 0-.521.096-.713.289s-.287.432-.287.717.096.522.287.711.429.283.713.283zM4.738 25.437c-.63 0-1.166-.221-1.608-.663s-.663-.978-.663-1.608V8.651c0-.632.221-1.17.663-1.614s.978-.665 1.608-.665h22.523c.632 0 1.17.222 1.614.665s.665.981.665 1.614v3.173c0 .32-.111.59-.334.808s-.495.327-.816.327c-.322 0-.59-.109-.806-.327s-.323-.488-.323-.808V8.651H4.738v14.482h9.928c.32 0 .59.11.808.329s.328.49.328.812-.109.597-.328.823c-.218.227-.488.34-.808.34H4.738zm25.945-9.549c.143.143.214.318.214.524s-.073.38-.218.52l-1.205 1.213-1.858-1.858 1.276-1.284c.133-.138.284-.207.454-.207s.321.069.454.207l.884.884zm-2.1 3.149-8.767 8.767c-.123.122-.251.208-.382.257s-.267.075-.407.075h-.846c-.149 0-.281-.057-.394-.17s-.17-.245-.17-.394v-.838c0-.14.026-.276.078-.408s.14-.259.261-.38l8.767-8.767 1.858 1.858z"/>
  </symbol>

  <symbol id="icon-close" viewBox="0 0 32 32">
    <path stroke-width="1.333" d="M23.466 7.9c.219 0 .355.065.462.172s.172.242.172.461c0 .219-.065.355-.172.462L16.923 16l7.005 7.004c.107.107.172.243.172.462s-.065.355-.172.462-.243.172-.462.172c-.219 0-.355-.065-.462-.172L16 16.923l-7.005 7.005c-.107.107-.243.172-.462.172s-.354-.065-.461-.172c-.107-.107-.172-.243-.172-.462s.065-.355.172-.462L15.076 16 8.072 8.995c-.107-.107-.172-.243-.172-.462s.065-.354.172-.461.242-.172.461-.172c.219 0 .355.065.462.172L16 15.076l7.004-7.004c.107-.107.243-.172.462-.172z"/>
  </symbol>

  <symbol id="icon-delete" viewBox="0 0 32 32">
    <path d="M8.637 28.199c-.632 0-1.17-.221-1.614-.663s-.665-.978-.665-1.608V7.063h-.367c-.321 0-.59-.11-.808-.329s-.327-.49-.327-.812c0-.322.109-.591.327-.806s.488-.323.808-.323h5.474c0-.326.109-.598.328-.816s.488-.327.808-.327h6.792c.32 0 .59.111.808.332s.327.492.327.812h5.482c.321 0 .59.11.808.329s.327.49.327.812c0 .322-.109.591-.327.807s-.488.323-.808.323h-.367V25.93c0 .63-.222 1.166-.665 1.608s-.981.663-1.614.663H8.637zM23.364 7.064H8.637v18.865h14.727V7.064zm-10.16 16.061c.304 0 .556-.103.759-.308s.303-.458.303-.755V10.889c0-.298-.103-.549-.31-.755s-.46-.309-.759-.309c-.306 0-.56.103-.763.309s-.303.457-.303.755v11.173c0 .298.103.55.309.755s.461.308.765.308zm5.611 0c.3 0 .552-.103.757-.308s.307-.458.307-.755V10.889c0-.298-.104-.549-.312-.755s-.463-.309-.764-.309c-.302 0-.555.103-.76.309s-.307.457-.307.755v11.173c0 .298.105.55.315.755s.465.308.765.308z"/>
  </symbol>

  <symbol id="icon-facebook" viewBox="0 0 32 32">
    <path d="M29.333 16.405C29.333 8.996 23.364 2.99 16 2.99S2.667 8.996 2.667 16.405c0 6.696 4.876 12.245 11.25 13.252v-9.374h-3.385v-3.878h3.385V13.45c0-3.362 1.991-5.219 5.036-5.219 1.459 0 2.985.262 2.985.262v3.301h-1.681c-1.656 0-2.173 1.034-2.173 2.095v2.516h3.698l-.591 3.878h-3.107v9.374c6.374-1.006 11.25-6.556 11.25-13.252z"/>
  </symbol>

  <symbol id="icon-instagram" viewBox="0 0 32 32">
    <path d="M16.006 6.488c3.206 0 3.585.014 4.846.071 1.172.052 1.804.248 2.227.412.558.216.961.478 1.378.895.422.422.679.82.9 1.378.164.422.361 1.059.412 2.226.056 1.266.071 1.645.071 4.847s-.014 3.585-.071 4.847c-.052 1.172-.248 1.804-.412 2.226a3.714 3.714 0 0 1-.895 1.378c-.422.422-.82.679-1.377.9-.422.164-1.06.361-2.227.412-1.266.056-1.645.071-4.847.071s-3.585-.014-4.847-.071c-1.172-.052-1.804-.248-2.226-.412a3.714 3.714 0 0 1-1.378-.895 3.767 3.767 0 0 1-.9-1.378c-.164-.422-.361-1.06-.412-2.226-.056-1.266-.071-1.645-.071-4.847s.014-3.585.071-4.847c.052-1.172.248-1.804.412-2.226.216-.558.478-.961.895-1.378.422-.422.82-.679 1.378-.9.422-.164 1.059-.361 2.226-.412 1.261-.056 1.641-.071 4.847-.071h.001zm0-2.161c-3.258 0-3.665.014-4.945.071-1.275.056-2.151.262-2.91.558a5.847 5.847 0 0 0-2.127 1.387 5.883 5.883 0 0 0-1.387 2.123c-.295.764-.502 1.636-.558 2.91-.056 1.285-.071 1.692-.071 4.949s.014 3.665.071 4.945c.056 1.275.262 2.151.558 2.91a5.86 5.86 0 0 0 1.387 2.127 5.876 5.876 0 0 0 2.123 1.383c.764.295 1.636.502 2.91.558 1.279.056 1.687.07 4.945.07s3.665-.014 4.945-.07c1.275-.056 2.151-.263 2.91-.558.787-.304 1.458-.717 2.123-1.383s1.078-1.336 1.383-2.123c.295-.764.502-1.636.558-2.91.056-1.279.07-1.687.07-4.945s-.014-3.665-.07-4.945c-.056-1.275-.263-2.151-.558-2.91a5.622 5.622 0 0 0-1.373-2.133 5.876 5.876 0 0 0-2.123-1.383c-.764-.295-1.636-.502-2.91-.558-1.284-.061-1.692-.075-4.949-.075l-.001.001z"/>
    <path d="M16.007 10.162a6.164 6.164 0 1 0 6.163 6.163 6.165 6.165 0 0 0-6.163-6.163zm0 10.161a3.998 3.998 0 1 1 0-7.996 3.998 3.998 0 0 1 0 7.996zM23.852 9.919a1.439 1.439 0 1 1-2.877 0 1.439 1.439 0 0 1 2.877 0z"/>
  </symbol>

  <symbol id="icon-keyboard-arrow-down" viewBox="0 0 32 32">
    <path stroke-width="1.333" d="M9.449 12.031c.134 0 .237.041.341.145l6.208 6.244 6.243-6.244c.104-.103.192-.133.299-.129a.491.491 0 0 1 .349.163c.104.104.145.207.145.341s-.041.236-.145.34L16.33 19.45a.527.527 0 0 1-.167.122.415.415 0 0 1-.165.031.499.499 0 0 1-.09-.009l-.077-.022-.07-.04a.681.681 0 0 1-.095-.082l-6.592-6.591a.392.392 0 0 1-.129-.318.507.507 0 0 1 .163-.365.447.447 0 0 1 .34-.145z"/>
  </symbol>

  <symbol id="icon-keyboard-arrow-up" viewBox="0 0 32 32">
    <path stroke-width="1.333" d="M16 11.605c.125 0 .227.038.333.145l6.591 6.592c.109.109.145.208.145.324s-.035.215-.145.324c-.104.104-.207.145-.341.145s-.236-.041-.34-.145l-.001-.001-6.243-6.207-6.241 6.241c-.104.104-.192.133-.299.129a.493.493 0 0 1-.349-.161c-.104-.104-.145-.207-.145-.341s.04-.237.145-.341l6.559-6.559a.438.438 0 0 1 .332-.145z"/>
  </symbol>

  <symbol id="icon-logout" viewBox="0 0 32 32">
    <path d="M6.072 28.199c-.613 0-1.145-.225-1.595-.676s-.676-.982-.676-1.595V6.071c0-.616.225-1.149.676-1.601s.982-.678 1.595-.678h8.807c.321 0 .59.111.808.334s.327.495.327.816c0 .322-.109.59-.327.806s-.487.323-.808.323H6.072v19.857h8.807c.321 0 .59.11.808.329s.327.49.327.812c0 .322-.109.591-.327.806s-.487.323-.808.323H6.072zm17.784-11.063H13.088c-.32 0-.59-.11-.808-.329s-.327-.49-.327-.812c0-.322.109-.591.327-.806s.488-.323.808-.323h10.701l-2.564-2.564c-.227-.228-.334-.495-.323-.8s.13-.571.357-.795c.226-.229.496-.342.81-.34s.585.117.815.344l4.529 4.529c.221.228.332.494.332.797s-.111.568-.332.794l-4.496 4.496c-.222.226-.486.335-.792.327s-.577-.126-.812-.352c-.218-.227-.328-.497-.331-.811s.112-.586.344-.813l2.531-2.539z"/>
  </symbol>

  <symbol id="icon-manage-accounts" viewBox="0 0 32 32">
    <path d="M13.332 15.73c-1.526 0-2.774-.485-3.743-1.454s-1.454-2.217-1.454-3.744.485-2.775 1.454-3.745c.969-.971 2.217-1.456 3.743-1.456s2.776.485 3.749 1.456c.973.97 1.46 2.219 1.46 3.745s-.487 2.774-1.46 3.744c-.973.969-2.223 1.454-3.749 1.454zM2.467 24.565v-1.077c0-.837.213-1.591.639-2.262s1.007-1.176 1.742-1.514c1.287-.573 2.614-1.042 3.981-1.408s2.766-.549 4.199-.549c.327 0 .599.109.817.327s.326.488.326.81c0 .328-.11.601-.331.82s-.491.329-.812.329c-1.262 0-2.498.152-3.708.455s-2.383.739-3.521 1.308c-.308.176-.561.414-.761.714s-.3.634-.3 1.001v1.046h8.331c.32 0 .59.11.808.329s.327.49.327.812-.109.591-.327.806a1.105 1.105 0 0 1-.808.323H4.738c-.63 0-1.166-.223-1.608-.667s-.663-.979-.663-1.604zm19.746 2.82-.225-1.409c-.367-.106-.74-.262-1.118-.467s-.695-.439-.952-.701l-1.235.259a.858.858 0 0 1-.963-.399l-.205-.349c-.119-.194-.161-.39-.128-.589s.125-.371.274-.515l1.076-1.009c-.05-.184-.073-.45-.071-.797s.026-.61.071-.788l-1.084-1.027c-.143-.12-.232-.283-.266-.489s.008-.394.125-.566l.207-.415c.099-.169.228-.285.389-.347s.338-.07.532-.026l1.276.259c.256-.256.573-.488.952-.697s.751-.363 1.118-.464l.225-1.401c.046-.247.156-.447.33-.6s.378-.23.61-.23h.3c.227 0 .427.077.6.231s.285.351.335.591l.228 1.408c.36.101.731.256 1.112.465s.699.441.954.697l1.244-.259c.188-.044.371-.031.547.041s.312.194.407.366l.204.339c.119.201.161.399.125.596s-.129.366-.278.51l-1.076 1.017c.055.182.081.446.079.792s-.029.611-.079.795l1.074 1.007c.151.129.244.297.28.504s-.004.397-.121.568l-.208.416c-.099.172-.231.286-.394.345s-.342.065-.535.021l-1.268-.259c-.256.261-.574.495-.955.701s-.752.362-1.114.467l-.225 1.401c-.05.245-.163.443-.338.595s-.377.228-.606.228h-.293c-.228 0-.431-.076-.607-.228s-.286-.347-.331-.587zm1.088-3.355c.783 0 1.415-.241 1.897-.721s.722-1.115.722-1.901-.241-1.421-.722-1.902c-.482-.481-1.114-.721-1.898-.721s-1.417.241-1.9.722c-.484.481-.725 1.113-.725 1.897 0 .789.242 1.424.726 1.905s1.118.721 1.901.721zm-9.969-10.571c.846 0 1.546-.276 2.1-.829s.83-1.252.83-2.099c0-.849-.276-1.549-.829-2.101s-1.251-.827-2.098-.827c-.846 0-1.546.276-2.1.828s-.83 1.251-.83 2.097c0 .848.276 1.549.829 2.102s1.252.83 2.098.83z"/>
  </symbol>

  <symbol id="icon-menu" viewBox="0 0 32 32">
    <path d="M4.936 24.295c-.321 0-.59-.11-.808-.329s-.327-.493-.327-.82c0-.322.109-.591.327-.807s.488-.323.808-.323h22.127c.321 0 .591.11.812.329s.331.49.331.812a1.121 1.121 0 0 1-1.143 1.137H4.936zm0-7.159c-.321 0-.59-.11-.808-.329s-.327-.49-.327-.812c0-.322.109-.591.327-.806s.488-.323.808-.323h22.127c.321 0 .591.11.812.329s.331.49.331.812c0 .322-.11.591-.331.806s-.492.323-.812.323H4.936zm0-7.152c-.321 0-.59-.11-.808-.329s-.327-.493-.327-.82c0-.322.109-.591.327-.806s.488-.323.808-.323h22.127c.321 0 .591.11.812.329s.331.49.331.812a1.117 1.117 0 0 1-1.143 1.138H4.936z"/>
  </symbol>

  <symbol id="icon-service-toolbox" viewBox="0 0 32 32">
    <path d="M10.1 7.493v-1.7c0-.576.203-1.07.61-1.48s.899-.616 1.478-.616h7.558c.579 0 1.071.205 1.478.616s.61.904.61 1.48v1.7h2.133c.432 0 .833.106 1.204.319s.641.524.813.934l3.251 7.709c.127.26.21.526.249.798s.058.545.058.817v6.525c0 .63-.222 1.166-.665 1.608s-.981.663-1.614.663H4.74c-.63 0-1.166-.221-1.608-.663s-.663-.978-.663-1.608V18.07c0-.272.019-.545.058-.817s.119-.538.241-.798l3.184-7.709c.172-.41.443-.721.813-.934s.772-.319 1.204-.319h2.133zm2.088 0h7.558v-1.7h-7.558v1.7zm-2.65 8.874V15.8c0-.283.096-.521.289-.713s.432-.287.717-.287.522.096.713.287.285.429.285.713v.567h8.915V15.8c0-.283.097-.521.291-.713s.433-.287.718-.287.522.096.711.287.283.429.283.713v.567h4.233l-2.75-6.595H8.054l-2.751 6.595h4.233zm0 2h-4.8v6.228h22.523v-6.228h-4.8v.567c0 .283-.096.521-.289.712s-.431.288-.717.288c-.285 0-.522-.096-.713-.288s-.285-.429-.285-.712v-.567h-8.915v.567c0 .283-.097.521-.291.712s-.433.288-.718.288-.522-.096-.711-.288-.283-.429-.283-.712v-.567z"/>
  </symbol>

  <symbol id="icon-star" viewBox="0 0 32 32">
    <path d="M10.878 23.674 16 20.612l5.122 3.095-1.376-5.798 4.504-3.92-5.939-.517L16 8l-2.311 5.447-5.939.509 4.504 3.912-1.376 5.806zm5.121-.417-6.216 3.749a1.137 1.137 0 0 1-1.259-.041c-.177-.127-.308-.291-.394-.493s-.104-.429-.054-.684l1.641-7.083-5.482-4.783c-.199-.171-.321-.365-.365-.58s-.038-.425.017-.63c.05-.204.164-.377.344-.518s.396-.222.65-.245l7.249-.633 2.808-6.691c.1-.232.25-.404.452-.518s.405-.17.609-.17.407.057.609.17c.202.113.353.286.452.518l2.808 6.691 7.257.633c.249.022.463.104.642.245s.294.313.344.518c.055.204.061.414.017.63s-.165.409-.365.58l-5.482 4.783 1.641 7.083c.05.254.032.482-.054.684a1.148 1.148 0 0 1-.999.704 1.115 1.115 0 0 1-.654-.17l-6.216-3.749z"/>
  </symbol>

  <symbol id="icon-star-full" viewBox="0 0 32 32">
    <path d="m15.999 23.257-6.216 3.749a1.137 1.137 0 0 1-1.259-.041c-.177-.127-.308-.291-.394-.493s-.104-.429-.054-.684l1.641-7.083-5.482-4.783c-.199-.171-.321-.365-.365-.58s-.038-.425.017-.63c.05-.204.164-.377.344-.518s.396-.222.65-.245l7.249-.633 2.808-6.691c.1-.232.25-.404.452-.518s.405-.17.609-.17.407.057.609.17c.202.113.353.286.452.518l2.808 6.691 7.257.633c.249.022.463.104.642.245s.294.313.344.518c.055.204.061.414.017.63s-.165.409-.365.58l-5.482 4.783 1.641 7.083c.05.254.032.482-.054.684a1.148 1.148 0 0 1-.999.704 1.115 1.115 0 0 1-.654-.17l-6.216-3.749z"/>
  </symbol>

  <symbol id="icon-star-half" viewBox="0 0 32 32">
    <path d="M15.999 7.999v12.613l5.122 3.095-1.376-5.798 4.504-3.92-5.939-.517L15.999 8zm0 15.258-6.216 3.749a1.137 1.137 0 0 1-1.259-.041c-.177-.127-.308-.291-.394-.493s-.104-.429-.054-.684l1.641-7.083-5.482-4.783c-.199-.171-.321-.365-.365-.58s-.038-.425.017-.63c.05-.204.164-.377.344-.518s.396-.222.65-.245l7.249-.633 2.808-6.691c.1-.232.25-.404.452-.518s.405-.17.609-.17.407.057.609.17c.202.113.353.286.452.518l2.808 6.691 7.257.633c.249.022.463.104.642.245s.294.313.344.518c.055.204.061.414.017.63s-.165.409-.365.58l-5.482 4.783 1.641 7.083c.05.254.032.482-.054.684a1.148 1.148 0 0 1-.999.704 1.115 1.115 0 0 1-.654-.17l-6.216-3.749z"/>
  </symbol>

  <symbol id="icon-logo" viewBox="0 0 177 32">
<path d="M6.918 29.097h11.646v-3.027h-11.646v3.027zM7.99 12.109h8.648c0.25 0 0.469-0.094 0.656-0.281s0.281-0.407 0.281-0.657c0-0.251-0.094-0.471-0.281-0.661s-0.406-0.285-0.656-0.285h-8.648c-0.258 0-0.481 0.095-0.668 0.284s-0.28 0.41-0.28 0.662c0 0.252 0.093 0.472 0.28 0.659s0.409 0.28 0.668 0.28zM7.99 7.713h8.648c0.25 0 0.469-0.093 0.656-0.28s0.281-0.407 0.281-0.662c0-0.255-0.094-0.476-0.281-0.662s-0.406-0.28-0.656-0.28h-8.648c-0.258 0-0.481 0.094-0.668 0.282s-0.28 0.406-0.28 0.656c0 0.258 0.093 0.48 0.28 0.667s0.409 0.28 0.668 0.28zM24.608 14.271v-2.791h4.107v-5.023h-4.107v-2.791h3.952c0.755 0 1.411 0.254 1.967 0.762s0.869 1.129 0.938 1.863v1.297h3.84c0.393 0 0.725 0.135 0.995 0.406s0.405 0.603 0.405 0.997c0 0.372-0.135 0.697-0.405 0.973s-0.602 0.415-0.995 0.415h-3.86v1.297c-0.069 0.727-0.38 1.342-0.933 1.843s-1.203 0.752-1.951 0.752h-3.952zM17.7 23.279h-2.791v-8.143h6.918v-12.335h-14.702c-1.211 0-2.234 0.418-3.070 1.254s-1.254 1.859-1.254 3.070v3.687c0 1.211 0.418 2.234 1.254 3.070s1.859 1.254 3.070 1.254h3.459v8.143h-2.802v-5.363h-0.865c-1.923-0.048-3.557-0.764-4.902-2.146s-2.017-3.035-2.017-4.959v-3.687c0-1.956 0.698-3.632 2.093-5.029s3.073-2.096 5.032-2.096h14.526c0.82 0 1.518 0.288 2.093 0.863s0.863 1.273 0.863 2.093v12.025c0 0.82-0.288 1.518-0.863 2.093s-1.273 0.863-2.093 0.863h-3.952v5.342zM6.332 31.898c-0.617 0-1.139-0.216-1.565-0.649s-0.639-0.954-0.639-1.566v-4.2c0-0.612 0.213-1.133 0.639-1.561s0.948-0.643 1.565-0.643h12.819c0.615 0 1.138 0.214 1.569 0.643s0.646 0.949 0.646 1.561v4.2c0 0.611-0.215 1.133-0.646 1.566s-0.953 0.649-1.569 0.649h-12.819z"></path>
<path d="M170.83 6.792v15.717c0 0.78 0.2 1.349 0.601 1.708 0.422 0.358 0.98 0.538 1.676 0.538 0.569 0 1.065-0.084 1.486-0.253 0.422-0.19 0.812-0.443 1.17-0.759l0.759 2.467c-0.485 0.422-1.086 0.759-1.802 1.012-0.696 0.232-1.476 0.348-2.34 0.348-0.906 0-1.739-0.148-2.498-0.443s-1.349-0.77-1.771-1.423c-0.422-0.675-0.643-1.55-0.664-2.625v-15.337l3.384-0.949zM176.269 11.44v2.656h-11.859v-2.656h11.859z"></path>
<path d="M151.609 11.442l4.459 6.767 0.633 0.095 6.419 8.949h-4.016l-4.649-6.957-0.727-0.253-6.198-8.602h4.080zM163.025 11.442l-6.198 8.475-0.696-0.032-5.060 7.368h-3.858l6.736-9.013 0.664 0.063 4.522-6.862h3.89z"></path>
<path d="M138.782 27.569c-1.581 0-2.973-0.327-4.174-0.98s-2.14-1.592-2.815-2.814c-0.654-1.244-0.98-2.72-0.98-4.427s0.327-3.173 0.98-4.396c0.675-1.244 1.602-2.193 2.783-2.846s2.519-0.98 4.016-0.98c1.539 0 2.846 0.316 3.922 0.949s1.897 1.497 2.467 2.593c0.569 1.096 0.854 2.34 0.854 3.732 0 0.379-0.010 0.738-0.032 1.075s-0.053 0.632-0.095 0.885h-12.713v-2.593h11.226l-1.676 0.506c0-1.434-0.358-2.53-1.075-3.289-0.717-0.78-1.697-1.17-2.941-1.17-0.906 0-1.697 0.211-2.372 0.632s-1.191 1.054-1.549 1.897c-0.358 0.822-0.538 1.834-0.538 3.036 0 1.181 0.19 2.182 0.569 3.004s0.917 1.444 1.613 1.866c0.696 0.422 1.518 0.633 2.467 0.633 1.054 0 1.908-0.2 2.561-0.601s1.17-0.959 1.55-1.676l2.688 1.265c-0.38 0.759-0.896 1.423-1.55 1.992-0.632 0.548-1.391 0.97-2.277 1.265s-1.855 0.443-2.909 0.443z"></path>
<path d="M126.654 6.379v20.872h-4.016l-8.064-13.155-2.024-3.7h-0.032l0.126 3.384v13.472h-3.099v-20.872h3.985l8.032 13.124 2.055 3.763h0.032l-0.126-3.415v-13.472h3.131z"></path>
<path d="M102.825 4.325v18.5c0 0.78 0.137 1.318 0.411 1.613s0.727 0.443 1.36 0.443c0.38 0 0.696-0.021 0.949-0.063 0.274-0.063 0.611-0.169 1.012-0.316l-0.38 2.53c-0.358 0.169-0.769 0.295-1.233 0.38-0.464 0.105-0.928 0.158-1.392 0.158-1.412 0-2.456-0.358-3.131-1.075-0.654-0.738-0.98-1.866-0.98-3.384v-18.784h3.384z"></path>
<path d="M87.753 11.125c1.539 0 2.899 0.327 4.080 0.98s2.098 1.602 2.751 2.846c0.675 1.223 1.012 2.688 1.012 4.396s-0.337 3.183-1.012 4.427c-0.653 1.223-1.571 2.161-2.751 2.814s-2.541 0.98-4.080 0.98-2.899-0.327-4.079-0.98c-1.181-0.653-2.108-1.592-2.783-2.814-0.675-1.244-1.012-2.72-1.012-4.427s0.337-3.173 1.012-4.396c0.675-1.244 1.602-2.193 2.783-2.846s2.54-0.98 4.079-0.98zM87.753 13.781c-0.949 0-1.76 0.221-2.435 0.664-0.653 0.422-1.159 1.044-1.518 1.866s-0.538 1.834-0.538 3.036c0 1.181 0.179 2.192 0.538 3.036 0.358 0.822 0.864 1.455 1.518 1.897 0.675 0.422 1.486 0.633 2.435 0.633s1.75-0.211 2.403-0.633c0.654-0.443 1.16-1.075 1.518-1.897 0.358-0.843 0.538-1.855 0.538-3.036 0-1.202-0.179-2.214-0.538-3.036s-0.864-1.444-1.518-1.866c-0.653-0.443-1.455-0.664-2.403-0.664z"></path>
<path d="M69.108 11.125c1.539 0 2.899 0.327 4.079 0.98s2.098 1.602 2.751 2.846c0.675 1.223 1.012 2.688 1.012 4.396s-0.337 3.183-1.012 4.427c-0.654 1.223-1.571 2.161-2.751 2.814s-2.54 0.98-4.079 0.98-2.899-0.327-4.080-0.98c-1.181-0.653-2.108-1.592-2.783-2.814-0.675-1.244-1.012-2.72-1.012-4.427s0.337-3.173 1.012-4.396c0.675-1.244 1.602-2.193 2.783-2.846s2.541-0.98 4.080-0.98zM69.108 13.781c-0.949 0-1.76 0.221-2.435 0.664-0.654 0.422-1.16 1.044-1.518 1.866s-0.538 1.834-0.538 3.036c0 1.181 0.179 2.192 0.538 3.036 0.358 0.822 0.864 1.455 1.518 1.897 0.675 0.422 1.486 0.633 2.435 0.633s1.75-0.211 2.403-0.633c0.653-0.443 1.159-1.075 1.518-1.897 0.358-0.843 0.538-1.855 0.538-3.036 0-1.202-0.179-2.214-0.538-3.036s-0.864-1.444-1.518-1.866c-0.654-0.443-1.455-0.664-2.403-0.664z"></path>
<path d="M62.288 6.379v2.909h-7.147v17.962h-3.384v-17.962h-7.147v-2.909h17.678z"></path>
</symbol>

 </defs>
</svg>
